<?xml version="1.0" standalone="no"?>
<!DOCTYPE svg PUBLIC "-//W3C//DTD SVG 20010904//EN"
 "http://www.w3.org/TR/2001/REC-SVG-20010904/DTD/svg10.dtd">
<svg version="1.0" xmlns="http://www.w3.org/2000/svg"
 width="48" height="48" viewBox="0 0 224 224"
 preserveAspectRatio="xMidYMid meet">

  <rect width="100%" height="100%" fill="#fcde6c"/>

  <g transform="translate(0,224) scale(0.28,-0.28)"
  fill="#000000" stroke="none">
    <path d="M1412 2084 c-59 -29 -92 -66 -92 -102 0 -13 20 -55 45 -93 25 -37 64
-106 85 -153 40 -83 40 -85 34 -169 -4 -49 -2 -125 5 -182 15 -114 8 -154 -49
-286 -95 -223 -212 -329 -434 -394 -122 -35 -271 -48 -460 -39 -148 6 -163 9
-213 35 -57 30 -85 28 -127 -9 -57 -53 -55 -107 11 -227 102 -186 295 -288
613 -325 145 -17 354 -8 449 20 354 102 612 382 709 770 22 90 26 127 26 255
0 114 -4 165 -18 214 -40 145 -125 259 -229 306 -88 40 -128 98 -192 270 -54
147 -68 156 -163 109z m107 -153 c46 -120 104 -218 147 -248 16 -11 50 -30 76
-42 142 -67 215 -243 205 -491 -16 -390 -236 -735 -561 -880 -180 -80 -422
-96 -671 -44 -245 51 -375 137 -452 301 -30 63 -34 78 -25 99 14 30 31 30 85
2 35 -18 69 -23 197 -30 499 -26 793 97 947 397 28 55 61 133 73 172 23 76 23
81 18 344 l-4 166 -43 89 c-23 49 -60 117 -82 151 -23 34 -38 67 -34 73 7 12
65 50 76 50 3 0 25 -49 48 -109z"/>
    <path d="M1631 1058 c-13 -35 -24 -76 -24 -93 -2 -25 2 -30 24 -33 23 -3 29 3
49 50 13 29 24 71 24 93 1 36 -2 40 -25 43 -23 3 -28 -3 -48 -60z"/>
    <path d="M1495 834 c-80 -116 -213 -213 -328 -239 -57 -13 -78 -34 -58 -59 8
-9 24 -16 37 -16 32 0 142 41 200 75 61 35 191 166 222 222 20 38 21 43 6 57
-25 26 -38 19 -79 -40z"/>
  </g>
</svg>
